<svg fill="none" xmlns="http://www.w3.org/2000/svg">
<g clip-path="url(#clip0_1_9)">
<path d="M-0.571358 418.322C-159.535 459.83 -8.42542 0.141811 -0.571358 1.0012H391.34C391.34 1.0012 460.325 437.393 391.34 459.83C322.356 482.266 158.393 376.814 -0.571358 418.322Z" fill="#D3DEDC"/>
<g style="mix-blend-mode:multiply">
<path d="M-2.33871 390.064C-120.827 447.456 -2.33871 0 -2.33871 0H407.647C407.647 0 444.441 232.403 407.647 390.064C370.853 547.724 116.149 332.671 -2.33871 390.064Z" fill="#1A374D"/>
<path d="M-2.33871 390.064C-120.827 447.456 -2.33871 0 -2.33871 0H407.647C407.647 0 444.441 232.403 407.647 390.064C370.853 547.724 116.149 332.671 -2.33871 390.064Z" stroke="#1A374D"/>
</g>
</g>
<defs>
<clipPath id="clip0_1_9">
<rect width="390" height="463" fill="white"/>
</clipPath>
</defs>
</svg>
